# xmcd CD database file
#
# Track frame offsets:
#	150
#	14593
#	27024
#	47368
#	59993
#	71204
#	85503
#	97089
#	109798
#	124936
#	143889
#	152795
#	177082
#
# Disc length: 2589 seconds
#
# Revision: 0
# Processed by: cddbd v1.4PL0 Copyright (c) Steve Scherf et al.
# Submitted via: CDex 1.40Release
#
DISCID=b30a1b0d
DTITLE=Audrey Auld - Losing Faith
DYEAR=2002
DGENRE=Country
TTITLE0=Losing Faith
TTITLE1=Denied
TTITLE2=Our Lady Of Sorrows
TTITLE3=Not Who I Am
TTITLE4=Doin' Well
TTITLE5=Trashin' Da Blues
TTITLE6=Your Eyes
TTITLE7=B-Grade Affair
TTITLE8=Next Big Nothing
TTITLE9=You Did
TTITLE10=Heartache
TTITLE11=Ain't No Joy
TTITLE12=Harmony
EXTD=YEAR: 2002 ID3G: 2
EXTT0=
EXTT1=
EXTT2=
EXTT3=
EXTT4=
EXTT5=
EXTT6=
EXTT7=
EXTT8=
EXTT9=
EXTT10=
EXTT11=
EXTT12=
PLAYORDER=
